<mxfile host="app.diagrams.net" agent="Mozilla/5.0 (Windows NT 10.0; Win64; x64) AppleWebKit/537.36 (KHTML, like Gecko) Chrome/133.0.0.0 Safari/537.36 Edg/133.0.0.0" version="26.1.0">
  <diagram name="Page-1" id="WSFtZ6bZGDHesEFfrnWl">
    <mxGraphModel dx="2066" dy="1141" grid="1" gridSize="10" guides="1" tooltips="1" connect="1" arrows="1" fold="1" page="1" pageScale="1" pageWidth="827" pageHeight="1169" math="0" shadow="0">
      <root>
        <mxCell id="0" />
        <mxCell id="1" parent="0" />
        <mxCell id="2ZLOB-57F4woFmNhOc_V-3" value="" style="image;aspect=fixed;html=1;points=[];align=center;fontSize=12;image=img/lib/azure2/general/Gear.svg;" vertex="1" parent="1">
          <mxGeometry x="388" y="180" width="64" height="64" as="geometry" />
        </mxCell>
        <mxCell id="2ZLOB-57F4woFmNhOc_V-4" value="" style="image;aspect=fixed;html=1;points=[];align=center;fontSize=12;image=img/lib/azure2/integration/Partner_Namespace.svg;" vertex="1" parent="1">
          <mxGeometry x="66" y="399.5" width="68" height="60.8" as="geometry" />
        </mxCell>
        <mxCell id="2ZLOB-57F4woFmNhOc_V-5" value="" style="image;aspect=fixed;html=1;points=[];align=center;fontSize=12;image=img/lib/azure2/integration/Partner_Topic.svg;" vertex="1" parent="1">
          <mxGeometry x="379.5" y="399.5" width="68" height="61" as="geometry" />
        </mxCell>
        <mxCell id="2ZLOB-57F4woFmNhOc_V-6" value="" style="image;aspect=fixed;html=1;points=[];align=center;fontSize=12;image=img/lib/azure2/other/Defender_CM_Local_Manager.svg;" vertex="1" parent="1">
          <mxGeometry x="220" y="392.3" width="68" height="68" as="geometry" />
        </mxCell>
        <mxCell id="2ZLOB-57F4woFmNhOc_V-7" value="" style="image;aspect=fixed;html=1;points=[];align=center;fontSize=12;image=img/lib/azure2/other/Storage_Actions.svg;" vertex="1" parent="1">
          <mxGeometry x="710" y="392.3" width="68" height="68" as="geometry" />
        </mxCell>
        <mxCell id="2ZLOB-57F4woFmNhOc_V-8" value="" style="image;aspect=fixed;html=1;points=[];align=center;fontSize=12;image=img/lib/azure2/other/Update_Center.svg;" vertex="1" parent="1">
          <mxGeometry x="540" y="389" width="68" height="68" as="geometry" />
        </mxCell>
        <mxCell id="2ZLOB-57F4woFmNhOc_V-9" value="&lt;b&gt;Producer&lt;/b&gt; de données avec Faker vers Kafka" style="rounded=1;whiteSpace=wrap;html=1;" vertex="1" parent="1">
          <mxGeometry x="40" y="500" width="120" height="60" as="geometry" />
        </mxCell>
        <mxCell id="2ZLOB-57F4woFmNhOc_V-10" value="Ingestion dans &lt;b&gt;Kafka&lt;/b&gt;" style="rounded=1;whiteSpace=wrap;html=1;" vertex="1" parent="1">
          <mxGeometry x="200" y="500" width="120" height="60" as="geometry" />
        </mxCell>
        <mxCell id="2ZLOB-57F4woFmNhOc_V-11" value="&lt;b&gt;Consumer&lt;/b&gt; lit les&amp;nbsp; données de Kafka" style="rounded=1;whiteSpace=wrap;html=1;" vertex="1" parent="1">
          <mxGeometry x="360" y="500" width="120" height="60" as="geometry" />
        </mxCell>
        <mxCell id="2ZLOB-57F4woFmNhOc_V-12" value="Transformation des données et formattage" style="rounded=1;whiteSpace=wrap;html=1;" vertex="1" parent="1">
          <mxGeometry x="520" y="500" width="120" height="60" as="geometry" />
        </mxCell>
        <mxCell id="2ZLOB-57F4woFmNhOc_V-13" value="Sauvegarde des données dans &lt;b&gt;Redis&lt;/b&gt;" style="rounded=1;whiteSpace=wrap;html=1;" vertex="1" parent="1">
          <mxGeometry x="680" y="500" width="120" height="60" as="geometry" />
        </mxCell>
        <mxCell id="2ZLOB-57F4woFmNhOc_V-14" value="&lt;b&gt;Airflow&lt;/b&gt; pour orchestration des taches" style="rounded=1;whiteSpace=wrap;html=1;" vertex="1" parent="1">
          <mxGeometry x="354" y="100" width="120" height="60" as="geometry" />
        </mxCell>
        <mxCell id="2ZLOB-57F4woFmNhOc_V-15" value="" style="shape=flexArrow;endArrow=classic;html=1;rounded=0;width=14;endSize=16.5;entryX=0.931;entryY=0.052;entryDx=0;entryDy=0;entryPerimeter=0;" edge="1" parent="1" target="2ZLOB-57F4woFmNhOc_V-4">
          <mxGeometry width="50" height="50" relative="1" as="geometry">
            <mxPoint x="380" y="220" as="sourcePoint" />
            <mxPoint x="440" y="560" as="targetPoint" />
          </mxGeometry>
        </mxCell>
        <mxCell id="2ZLOB-57F4woFmNhOc_V-16" value="" style="shape=flexArrow;endArrow=classic;html=1;rounded=0;width=14;endSize=16.5;entryX=0.647;entryY=0.064;entryDx=0;entryDy=0;entryPerimeter=0;" edge="1" parent="1" source="2ZLOB-57F4woFmNhOc_V-3" target="2ZLOB-57F4woFmNhOc_V-6">
          <mxGeometry width="50" height="50" relative="1" as="geometry">
            <mxPoint x="398" y="242" as="sourcePoint" />
            <mxPoint x="127" y="413" as="targetPoint" />
          </mxGeometry>
        </mxCell>
        <mxCell id="2ZLOB-57F4woFmNhOc_V-17" value="" style="shape=flexArrow;endArrow=classic;html=1;rounded=0;width=14;endSize=16.5;entryX=0.507;entryY=-0.057;entryDx=0;entryDy=0;entryPerimeter=0;" edge="1" parent="1" target="2ZLOB-57F4woFmNhOc_V-5">
          <mxGeometry width="50" height="50" relative="1" as="geometry">
            <mxPoint x="418" y="250" as="sourcePoint" />
            <mxPoint x="137" y="423" as="targetPoint" />
          </mxGeometry>
        </mxCell>
        <mxCell id="2ZLOB-57F4woFmNhOc_V-18" value="" style="shape=flexArrow;endArrow=classic;html=1;rounded=0;width=14;endSize=16.5;entryX=0.402;entryY=0.064;entryDx=0;entryDy=0;entryPerimeter=0;exitX=0.813;exitY=1.063;exitDx=0;exitDy=0;exitPerimeter=0;" edge="1" parent="1" source="2ZLOB-57F4woFmNhOc_V-3" target="2ZLOB-57F4woFmNhOc_V-8">
          <mxGeometry width="50" height="50" relative="1" as="geometry">
            <mxPoint x="418" y="262" as="sourcePoint" />
            <mxPoint x="147" y="433" as="targetPoint" />
          </mxGeometry>
        </mxCell>
        <mxCell id="2ZLOB-57F4woFmNhOc_V-19" value="" style="shape=flexArrow;endArrow=classic;html=1;rounded=0;width=14;endSize=16.5;" edge="1" parent="1" source="2ZLOB-57F4woFmNhOc_V-3">
          <mxGeometry width="50" height="50" relative="1" as="geometry">
            <mxPoint x="428" y="272" as="sourcePoint" />
            <mxPoint x="730" y="390" as="targetPoint" />
          </mxGeometry>
        </mxCell>
      </root>
    </mxGraphModel>
  </diagram>
</mxfile>
